<svg xmlns="http://www.w3.org/2000/svg" viewBox="0 0 410 404">
  <defs>
    <linearGradient id="a" x1="50%" x2="50%" y2="100%">
      <stop offset="0%" stop-color="#41D1FF"/>
      <stop offset="100%" stop-color="#BD34FE"/>
    </linearGradient>
    <linearGradient id="b" x1="50%" x2="50%" y2="100%">
      <stop offset="0%" stop-color="#FFEA83"/>
      <stop offset="8.333%" stop-color="#FFDD35"/>
      <stop offset="100%" stop-color="#FFA800"/>
    </linearGradient>
  </defs>
  <path fill="url(#a)" d="M399.5 56.8c-1.9-6.6-8.7-10.3-15.3-8.4L22.1 144.3c-6.6 1.9-10.3 8.7-8.4 15.3l76.6 272.2c1.9 6.6 8.7 10.3 15.3 8.4L388.5 80c6.6-1.9 10.3-8.7 8.4-15.2z"/>
  <path fill="url(#b)" d="M267.8 0c-5.2 0-9.8 3.4-11.3 8.4L171 291.7c-1.8 6.2 1.7 12.6 7.9 14.4 1.1.3 2.2.5 3.4.5 5 0 9.5-3.3 11-8.3l85.5-283.3c1.9-6.6-1.9-13.4-8.6-15.2-1.1-.3-2.2-.5-3.4-.5z"/>
</svg>
